<svg width="983" height="615" viewBox="0 0 983 615" fill="none" xmlns="http://www.w3.org/2000/svg">
<path d="M491.5 79.0714C389.586 79.0714 307 161.657 307 263.571C307 334.296 346.536 395.357 404.961 426.546L456.357 316.286H526.643L578.039 426.546C636.464 395.357 676 334.296 676 263.571C676 161.657 593.414 79.0714 491.5 79.0714Z" fill="#D4E3EE"/>
<path d="M618.893 513.964C609.229 503.421 553 495.075 489.304 495.075C425.607 495.075 373.332 502.982 363.668 513.525L454.6 318.043C466.461 321.557 477.004 323.314 489.304 323.314C501.604 323.314 516.539 321.557 528.4 318.043L618.893 513.964Z" fill="white"/>
<path d="M364.107 516.161C363.668 516.161 363.668 516.161 363.229 516.161C361.911 515.721 361.471 514.404 362.35 513.086L454.6 315.407C455.039 314.529 456.357 313.65 457.675 314.529C458.993 314.968 459.432 316.286 458.554 317.604L366.304 515.282C365.864 515.721 364.986 516.161 364.107 516.161Z" fill="#231F20"/>
<path d="M618.893 516.161C618.014 516.161 617.136 515.721 616.696 514.843L524.446 317.164C524.007 315.846 524.446 314.968 525.325 314.089C526.643 313.65 527.521 314.089 528.4 314.968L620.65 512.646C621.089 513.964 620.65 514.843 619.771 515.721C619.332 516.161 619.332 516.161 618.893 516.161Z" fill="#231F20"/>
<path d="M579.357 285.536C555.196 308.818 523.129 320.679 491.5 320.679C459.871 320.679 427.804 308.818 403.643 285.536H579.357Z" fill="white"/>
<path d="M491.5 535.929C561.857 535.929 618.893 526.095 618.893 513.964C618.893 501.834 561.857 492 491.5 492C421.143 492 364.107 501.834 364.107 513.964C364.107 526.095 421.143 535.929 491.5 535.929Z" fill="white"/>
<path d="M491.5 538.125C426.925 538.125 361.911 529.779 361.911 513.964C361.911 498.15 426.925 489.804 491.5 489.804C556.075 489.804 621.089 498.15 621.089 513.964C621.089 529.779 556.075 538.125 491.5 538.125ZM491.5 494.196C413.746 494.196 366.304 505.618 366.304 513.964C366.304 522.311 413.746 533.732 491.5 533.732C569.254 533.732 616.696 522.311 616.696 513.964C616.696 505.618 569.254 494.196 491.5 494.196Z" fill="#231F20"/>
<path d="M458.993 401.946H458.554C457.236 401.507 456.796 400.629 456.796 399.311L473.929 320.239C474.368 318.921 475.246 318.482 476.564 318.482C477.882 318.921 478.321 319.8 478.321 321.118L461.189 400.189C460.75 401.068 459.871 401.946 458.993 401.946Z" fill="#231F20"/>
<path d="M449.329 445.875H448.889C447.571 445.436 447.132 444.557 447.132 443.239L454.6 408.096C455.039 406.779 455.918 406.339 457.236 406.339C458.554 406.779 458.993 407.657 458.993 408.975L451.525 444.118C451.525 444.996 450.646 445.875 449.329 445.875Z" fill="#231F20"/>
<path d="M533.671 445.875C532.793 445.875 531.914 444.996 531.475 444.118L524.007 408.975C523.568 407.657 524.446 406.779 525.764 406.339C527.082 406.339 527.961 406.779 528.4 408.096L535.868 443.239C536.307 444.557 535.429 445.436 534.111 445.875C533.671 445.875 533.671 445.875 533.671 445.875Z" fill="#231F20"/>
<path d="M524.007 401.946C523.129 401.946 522.25 401.068 521.811 400.189L504.679 321.118C504.239 319.8 505.118 318.921 506.436 318.482C507.754 318.482 508.632 318.921 509.071 320.239L526.204 399.311C526.643 400.629 525.764 401.507 524.446 401.946C524.446 401.946 524.446 401.946 524.007 401.946Z" fill="#231F20"/>
<path d="M676.879 285.536H306.121C299.532 285.536 293.821 280.264 293.821 273.236C293.821 267.525 297.775 262.693 303.486 261.375L425.607 232.821H557.393L679.514 261.375C685.225 262.693 689.179 267.525 689.179 273.236C689.179 280.264 683.907 285.536 676.879 285.536Z" fill="white"/>
<path d="M548.607 215.25H434.393V184.5C434.393 152.871 459.871 127.393 491.5 127.393C523.129 127.393 548.607 152.871 548.607 184.5V215.25Z" fill="#C7EAFB"/>
<path d="M548.607 219.643H434.393C431.757 219.643 430 217.886 430 215.25V184.5C430 150.675 457.675 123 491.5 123C525.325 123 553 150.675 553 184.5V215.25C553 217.886 551.243 219.643 548.607 219.643ZM438.786 210.857H544.214V184.5C544.214 155.507 520.493 131.786 491.5 131.786C462.507 131.786 438.786 155.507 438.786 184.5V210.857Z" fill="#231F20"/>
<path d="M460.75 155.507C460.311 155.507 459.432 155.068 458.993 155.068C458.114 154.189 458.114 152.871 458.993 151.993C467.779 143.646 479.2 138.814 491.5 138.814C492.818 138.814 493.696 139.693 493.696 141.011C493.696 142.329 492.818 143.207 491.5 143.207C480.518 143.207 469.975 147.6 462.068 155.068C462.068 155.068 461.189 155.507 460.75 155.507Z" fill="#231F20"/>
<path d="M449.768 173.518H449.329C448.011 173.079 447.571 171.761 448.011 170.882C448.889 168.686 449.329 166.489 450.646 164.732C451.086 163.854 452.404 162.975 453.721 163.854C454.6 164.293 455.479 165.611 454.6 166.929C453.721 168.686 452.843 170.882 452.404 172.639C451.525 173.079 450.646 173.518 449.768 173.518Z" fill="#231F20"/>
<path d="M557.393 232.821H425.607V224.036C425.607 219.204 429.561 215.25 434.393 215.25H548.607C553.439 215.25 557.393 219.204 557.393 224.036V232.821Z" fill="white"/>
<path d="M601.321 180.107C601.321 182.743 599.564 184.5 596.929 184.5C594.293 184.5 592.536 182.743 592.536 180.107C592.536 177.471 594.293 175.714 596.929 175.714C599.564 175.714 601.321 177.471 601.321 180.107Z" fill="#231F20"/>
<path d="M601.321 208.661C601.321 209.979 600.443 210.857 599.125 210.857C597.807 210.857 596.929 209.979 596.929 208.661C596.929 207.343 597.807 206.464 599.125 206.464C600.443 206.464 601.321 207.343 601.321 208.661Z" fill="#231F20"/>
<path d="M632.071 169.125C632.071 170.443 631.193 171.321 629.875 171.321C628.557 171.321 627.679 170.443 627.679 169.125C627.679 167.807 628.557 166.929 629.875 166.929C631.193 166.929 632.071 167.807 632.071 169.125Z" fill="#231F20"/>
<path d="M355.321 226.232C355.321 227.55 354.443 228.429 353.125 228.429C351.807 228.429 350.929 227.55 350.929 226.232C350.929 224.914 351.807 224.036 353.125 224.036C354.443 224.036 355.321 224.914 355.321 226.232Z" fill="#231F20"/>
<path d="M601.321 129.589C601.321 130.907 600.443 131.786 599.125 131.786C597.807 131.786 596.929 130.907 596.929 129.589C596.929 128.271 597.807 127.393 599.125 127.393C600.443 127.393 601.321 128.271 601.321 129.589Z" fill="#231F20"/>
<path d="M403.643 151.554C403.643 152.871 402.764 153.75 401.446 153.75C400.129 153.75 399.25 152.871 399.25 151.554C399.25 150.236 400.129 149.357 401.446 149.357C402.764 149.357 403.643 150.236 403.643 151.554Z" fill="#231F20"/>
<path d="M456.357 98.8393C456.357 100.157 455.479 101.036 454.161 101.036C452.843 101.036 451.964 100.157 451.964 98.8393C451.964 97.5214 452.843 96.6429 454.161 96.6429C455.479 96.6429 456.357 97.5214 456.357 98.8393Z" fill="#231F20"/>
<path d="M364.107 151.554C364.107 152.871 363.229 153.75 361.911 153.75C360.593 153.75 359.714 152.871 359.714 151.554C359.714 150.236 360.593 149.357 361.911 149.357C363.229 149.357 364.107 150.236 364.107 151.554Z" fill="#231F20"/>
<path d="M381.679 208.661C381.679 209.979 380.8 210.857 379.482 210.857C378.164 210.857 377.286 209.979 377.286 208.661C377.286 207.343 378.164 206.464 379.482 206.464C380.8 206.464 381.679 207.343 381.679 208.661Z" fill="#231F20"/>
<path d="M544.214 114.214C544.214 116.85 542.457 118.607 539.821 118.607C537.186 118.607 535.429 116.85 535.429 114.214C535.429 111.579 537.186 109.821 539.821 109.821C542.457 109.821 544.214 111.579 544.214 114.214Z" fill="#231F20"/>
<path d="M377.286 180.107C377.286 182.743 375.529 184.5 372.893 184.5C370.257 184.5 368.5 182.743 368.5 180.107C368.5 177.471 370.257 175.714 372.893 175.714C375.529 175.714 377.286 177.471 377.286 180.107Z" fill="#231F20"/>
<path d="M548.607 210.857H434.393C426.925 210.857 421.214 216.568 421.214 224.036V232.821C421.214 235.457 422.971 237.214 425.607 237.214H557.393C560.029 237.214 561.786 235.457 561.786 232.821V224.036C561.786 216.568 556.075 210.857 548.607 210.857ZM458.554 219.643H471.732V228.429H458.554V219.643ZM454.161 228.429H440.982V219.643H454.161V228.429ZM476.125 219.643H489.304V228.429H476.125V219.643ZM493.696 219.643H506.875V228.429H493.696V219.643ZM511.268 219.643H524.446V228.429H511.268V219.643ZM528.839 219.643H542.018V228.429H528.839V219.643ZM430 224.036C430 221.4 431.757 219.643 434.393 219.643H436.589V228.429H430V224.036ZM553 228.429H546.411V219.643H548.607C551.243 219.643 553 221.4 553 224.036V228.429Z" fill="#231F20"/>
<path d="M517.857 215.25H465.143V184.5C465.143 170.004 477.004 158.143 491.5 158.143C505.996 158.143 517.857 170.004 517.857 184.5V215.25Z" fill="#F8BC78"/>
<path d="M517.857 219.643H465.143C462.507 219.643 460.75 217.886 460.75 215.25V184.5C460.75 167.368 474.368 153.75 491.5 153.75C508.632 153.75 522.25 167.368 522.25 184.5V215.25C522.25 217.886 520.493 219.643 517.857 219.643ZM469.536 210.857H513.464V184.5C513.464 172.2 503.8 162.536 491.5 162.536C479.2 162.536 469.536 172.2 469.536 184.5V210.857Z" fill="#231F20"/>
<path d="M491.5 197.679C498.778 197.679 504.679 191.778 504.679 184.5C504.679 177.222 498.778 171.321 491.5 171.321C484.222 171.321 478.321 177.222 478.321 184.5C478.321 191.778 484.222 197.679 491.5 197.679Z" fill="white"/>
<path d="M491.5 199.875C483.154 199.875 476.125 192.846 476.125 184.5C476.125 176.154 483.154 169.125 491.5 169.125C499.846 169.125 506.875 176.154 506.875 184.5C506.875 192.846 499.846 199.875 491.5 199.875ZM491.5 173.518C485.35 173.518 480.518 178.35 480.518 184.5C480.518 190.65 485.35 195.482 491.5 195.482C497.65 195.482 502.482 190.65 502.482 184.5C502.482 178.35 497.65 173.518 491.5 173.518Z" fill="#231F20"/>
<path d="M495.893 188.893C495.893 191.529 494.136 193.286 491.5 193.286C488.864 193.286 487.107 191.529 487.107 188.893C487.107 186.257 488.864 184.5 491.5 184.5C494.136 184.5 495.893 186.257 495.893 188.893Z" fill="#231F20"/>
<path d="M680.832 256.982L558.271 228.429C557.832 228.429 557.393 228.429 557.393 228.429H425.607C425.168 228.429 424.729 228.429 424.729 228.429L302.607 256.982C295.139 258.739 289.868 265.329 289.868 273.236C289.868 282.461 297.336 289.929 306.561 289.929H677.318C686.543 289.929 694.011 282.461 694.011 273.236C693.571 265.329 688.3 258.739 680.832 256.982ZM304.364 265.768L426.046 237.214H556.954L678.636 265.768C681.271 266.207 683.029 267.964 683.907 270.161H679.514C678.636 268.843 677.318 267.964 676 267.964C674.243 267.964 672.925 268.843 672.486 270.161H649.204C648.325 268.843 647.007 267.964 645.689 267.964C643.932 267.964 642.614 268.843 642.175 270.161H618.893C617.575 268.843 616.257 267.964 614.5 267.964C612.743 267.964 611.425 268.843 610.986 270.161H587.704C586.825 268.843 585.507 267.964 583.75 267.964C581.993 267.964 580.675 268.843 580.236 270.161H556.954C556.075 268.843 554.757 267.964 553 267.964C551.243 267.964 549.925 268.843 549.486 270.161H526.204C525.325 268.843 524.007 267.964 522.25 267.964C520.493 267.964 519.175 268.843 518.736 270.161H495.454C494.575 268.843 493.257 267.964 491.5 267.964C489.743 267.964 488.425 268.843 487.986 270.161H464.704C463.825 268.843 462.507 267.964 460.75 267.964C458.993 267.964 457.675 268.843 457.236 270.161H433.954C433.075 268.843 431.757 267.964 430 267.964C428.243 267.964 426.925 268.843 426.486 270.161H403.204C402.325 268.843 401.007 267.964 399.25 267.964C397.493 267.964 396.175 268.843 395.736 270.161H372.454C371.575 268.843 370.257 267.964 368.5 267.964C366.743 267.964 365.425 268.843 364.986 270.161H341.704C340.825 268.843 339.507 267.964 337.75 267.964C335.993 267.964 334.675 268.843 334.236 270.161H310.954C310.075 268.843 308.757 267.964 307 267.964C305.243 267.964 303.925 268.843 303.486 270.161H299.093C299.971 267.964 301.729 266.207 304.364 265.768ZM676.879 281.143H306.121C302.168 281.143 299.093 278.068 298.214 274.554H303.046C303.925 275.871 305.243 276.75 306.561 276.75C308.318 276.75 309.636 275.871 310.075 274.554H333.357C334.236 275.871 335.554 276.75 336.871 276.75C338.189 276.75 339.946 275.871 340.386 274.554H363.668C364.546 275.871 365.864 276.75 367.182 276.75C368.5 276.75 370.257 275.871 370.696 274.554H393.979C394.857 275.871 396.175 276.75 397.493 276.75C398.811 276.75 400.568 275.871 401.007 274.554H424.289C425.168 275.871 426.486 276.75 427.804 276.75C429.121 276.75 430.879 275.871 431.318 274.554H454.6C455.479 275.871 456.796 276.75 458.114 276.75C459.432 276.75 461.189 275.871 461.629 274.554H484.911C485.789 275.871 487.107 276.75 488.425 276.75C490.182 276.75 491.5 275.871 491.939 274.554H515.221C516.1 275.871 517.418 276.75 518.736 276.75C520.493 276.75 521.811 275.871 522.25 274.554H545.532C546.411 275.871 547.729 276.75 549.046 276.75C550.804 276.75 552.121 275.871 552.561 274.554H575.843C576.721 275.871 578.039 276.75 579.357 276.75C581.114 276.75 582.432 275.871 582.871 274.554H606.154C607.032 275.871 608.35 276.75 609.668 276.75C611.425 276.75 612.743 275.871 613.182 274.554H636.464C637.343 275.871 638.661 276.75 639.979 276.75C641.736 276.75 643.054 275.871 643.493 274.554H666.775C667.654 275.871 668.971 276.75 670.289 276.75C672.046 276.75 673.364 275.871 673.804 274.554H678.636C683.907 278.068 680.832 281.143 676.879 281.143Z" fill="#231F20"/>
<path d="M697.964 516.161H632.071C630.754 516.161 629.875 515.282 629.875 513.964C629.875 512.646 630.754 511.768 632.071 511.768H697.964C699.282 511.768 700.161 512.646 700.161 513.964C700.161 515.282 699.282 516.161 697.964 516.161Z" fill="#231F20"/>
<path d="M350.929 516.161H285.036C283.718 516.161 282.839 515.282 282.839 513.964C282.839 512.646 283.718 511.768 285.036 511.768H350.929C352.246 511.768 353.125 512.646 353.125 513.964C353.125 515.282 352.246 516.161 350.929 516.161Z" fill="#231F20"/>
<path d="M667.214 232.821C674.493 232.821 680.393 226.921 680.393 219.643C680.393 212.365 674.493 206.464 667.214 206.464C659.936 206.464 654.036 212.365 654.036 219.643C654.036 226.921 659.936 232.821 667.214 232.821Z" fill="white"/>
<path d="M667.214 235.018C665.896 235.018 665.018 234.139 665.018 232.821C665.018 226.671 660.186 221.839 654.036 221.839C652.718 221.839 651.839 220.961 651.839 219.643C651.839 218.325 652.718 217.446 654.036 217.446C660.186 217.446 665.018 212.614 665.018 206.464C665.018 205.146 665.896 204.268 667.214 204.268C668.532 204.268 669.411 205.146 669.411 206.464C669.411 212.614 674.243 217.446 680.393 217.446C681.711 217.446 682.589 218.325 682.589 219.643C682.589 220.961 681.711 221.839 680.393 221.839C674.243 221.839 669.411 226.671 669.411 232.821C669.411 234.139 668.532 235.018 667.214 235.018ZM661.943 219.643C664.139 220.961 665.896 222.718 667.214 224.914C668.532 222.718 670.289 220.961 672.486 219.643C670.289 218.325 668.532 216.568 667.214 214.371C665.896 216.568 664.139 218.325 661.943 219.643Z" fill="#231F20"/>
<path d="M342.143 210.857C344.569 210.857 346.536 208.89 346.536 206.464C346.536 204.038 344.569 202.071 342.143 202.071C339.717 202.071 337.75 204.038 337.75 206.464C337.75 208.89 339.717 210.857 342.143 210.857Z" fill="white"/>
<path d="M342.143 213.054C340.825 213.054 339.946 212.175 339.946 210.857C339.946 209.539 339.068 208.661 337.75 208.661C336.432 208.661 335.554 207.782 335.554 206.464C335.554 205.146 336.432 204.268 337.75 204.268C339.068 204.268 339.946 203.389 339.946 202.071C339.946 200.754 340.825 199.875 342.143 199.875C343.461 199.875 344.339 200.754 344.339 202.071C344.339 203.389 345.218 204.268 346.536 204.268C347.854 204.268 348.732 205.146 348.732 206.464C348.732 207.782 347.854 208.661 346.536 208.661C345.218 208.661 344.339 209.539 344.339 210.857C344.339 212.175 343.461 213.054 342.143 213.054Z" fill="#231F20"/>
<path d="M574.964 140.571C577.39 140.571 579.357 138.605 579.357 136.179C579.357 133.752 577.39 131.786 574.964 131.786C572.538 131.786 570.571 133.752 570.571 136.179C570.571 138.605 572.538 140.571 574.964 140.571Z" fill="white"/>
<path d="M574.964 142.768C573.646 142.768 572.768 141.889 572.768 140.571C572.768 139.254 571.889 138.375 570.571 138.375C569.254 138.375 568.375 137.496 568.375 136.179C568.375 134.861 569.254 133.982 570.571 133.982C571.889 133.982 572.768 133.104 572.768 131.786C572.768 130.468 573.646 129.589 574.964 129.589C576.282 129.589 577.161 130.468 577.161 131.786C577.161 133.104 578.039 133.982 579.357 133.982C580.675 133.982 581.554 134.861 581.554 136.179C581.554 137.496 580.675 138.375 579.357 138.375C578.039 138.375 577.161 139.254 577.161 140.571C577.161 141.889 576.282 142.768 574.964 142.768Z" fill="#231F20"/>
<path d="M627.679 197.679C630.105 197.679 632.071 195.712 632.071 193.286C632.071 190.86 630.105 188.893 627.679 188.893C625.252 188.893 623.286 190.86 623.286 193.286C623.286 195.712 625.252 197.679 627.679 197.679Z" fill="white"/>
<path d="M627.679 199.875C626.361 199.875 625.482 198.996 625.482 197.679C625.482 196.361 624.604 195.482 623.286 195.482C621.968 195.482 621.089 194.604 621.089 193.286C621.089 191.968 621.968 191.089 623.286 191.089C624.604 191.089 625.482 190.211 625.482 188.893C625.482 187.575 626.361 186.696 627.679 186.696C628.996 186.696 629.875 187.575 629.875 188.893C629.875 190.211 630.754 191.089 632.071 191.089C633.389 191.089 634.268 191.968 634.268 193.286C634.268 194.604 633.389 195.482 632.071 195.482C630.754 195.482 629.875 196.361 629.875 197.679C629.875 198.996 628.996 199.875 627.679 199.875Z" fill="#231F20"/>
<path d="M390.464 127.393C397.743 127.393 403.643 121.493 403.643 114.214C403.643 106.936 397.743 101.036 390.464 101.036C383.186 101.036 377.286 106.936 377.286 114.214C377.286 121.493 383.186 127.393 390.464 127.393Z" fill="white"/>
<path d="M390.464 129.589C389.146 129.589 388.268 128.711 388.268 127.393C388.268 121.243 383.436 116.411 377.286 116.411C375.968 116.411 375.089 115.532 375.089 114.214C375.089 112.896 375.968 112.018 377.286 112.018C383.436 112.018 388.268 107.186 388.268 101.036C388.268 99.7179 389.146 98.8393 390.464 98.8393C391.782 98.8393 392.661 99.7179 392.661 101.036C392.661 107.186 397.493 112.018 403.643 112.018C404.961 112.018 405.839 112.896 405.839 114.214C405.839 115.532 404.961 116.411 403.643 116.411C397.493 116.411 392.661 121.243 392.661 127.393C392.661 128.711 391.782 129.589 390.464 129.589ZM385.193 114.214C387.389 115.532 389.146 117.289 390.464 119.486C391.782 117.289 393.539 115.532 395.736 114.214C393.539 112.896 391.782 111.139 390.464 108.943C389.146 111.139 387.389 112.896 385.193 114.214Z" fill="#231F20"/>
<path d="M583.311 283.779C582.871 282.021 581.114 281.143 579.357 281.143H403.643C401.886 281.143 400.129 282.021 399.689 283.779C398.811 285.536 399.25 287.293 400.568 288.611C424.729 312.332 457.236 325.071 491.5 325.071C525.764 325.071 558.271 312.332 582.432 288.611C583.75 287.293 584.189 285.536 583.311 283.779ZM451.525 309.696H531.475C518.736 314.089 505.118 316.286 491.5 316.286C477.443 316.286 464.264 314.089 451.525 309.696ZM542.457 305.304H440.543C431.757 301.35 422.971 296.079 415.504 289.929H567.936C560.029 296.079 551.682 301.35 542.457 305.304Z" fill="#231F20"/>
<path d="M185.521 376.976C180.75 381.508 174.548 383.774 166.915 383.774C159.282 383.774 153.08 381.508 148.309 376.976C143.658 372.324 141.332 365.824 141.332 357.475V332.608H45.0831C35.3032 332.608 27.4315 329.865 21.4682 324.379C15.5048 318.773 12.5231 311.438 12.5231 302.374C12.5231 292.117 16.28 280.369 23.7939 267.13C37.9867 241.607 61.8402 203.978 95.3544 154.244C104.3 140.528 112.589 131.046 120.222 125.798C127.855 120.55 137.158 117.927 148.13 117.927C161.846 117.927 172.699 121.445 180.69 128.482C188.681 135.399 192.677 144.881 192.677 156.927V289.493H207.347C214.383 289.493 219.81 291.461 223.627 295.397C227.563 299.333 229.53 304.58 229.53 311.14C229.53 317.58 227.563 322.769 223.627 326.704C219.691 330.64 214.264 332.608 207.347 332.608H192.677V357.475C192.677 365.824 190.291 372.324 185.521 376.976ZM142.405 290.924V161.042H141.332C104.121 214.712 76.9276 257.529 59.7531 289.493V290.924H142.405Z" fill="#2AB3C0"/>
<path d="M185.521 376.976L189.136 380.781L189.16 380.757L189.185 380.734L185.521 376.976ZM148.309 376.976L144.598 380.687L144.646 380.734L144.694 380.781L148.309 376.976ZM141.332 332.608H146.58V327.36H141.332V332.608ZM21.4682 324.379L17.8735 328.203L17.894 328.222L17.9147 328.241L21.4682 324.379ZM23.7939 267.13L28.3583 269.721L28.3696 269.701L28.3808 269.681L23.7939 267.13ZM95.3544 154.244L99.7068 157.176L99.7289 157.144L99.7505 157.111L95.3544 154.244ZM180.69 128.482L177.222 132.421L177.239 132.435L177.255 132.45L180.69 128.482ZM192.677 289.493H187.428V294.741H192.677V289.493ZM223.627 295.397L219.859 299.05L219.887 299.079L219.916 299.108L223.627 295.397ZM192.677 332.608V327.36H187.428V332.608H192.677ZM142.405 290.924V296.173H147.654V290.924H142.405ZM142.405 161.042H147.654V155.793H142.405V161.042ZM141.332 161.042V155.793H138.585L137.019 158.051L141.332 161.042ZM59.7531 289.493L55.1298 287.009L54.5047 288.172V289.493H59.7531ZM59.7531 290.924H54.5047V296.173H59.7531V290.924ZM181.906 373.171C178.266 376.628 173.434 378.526 166.915 378.526V389.022C175.662 389.022 183.234 386.387 189.136 380.781L181.906 373.171ZM166.915 378.526C160.396 378.526 155.564 376.628 151.924 373.171L144.694 380.781C150.596 386.387 158.167 389.022 166.915 389.022V378.526ZM152.02 373.265C148.6 369.845 146.58 364.826 146.58 357.475H136.084C136.084 366.822 138.715 374.804 144.598 380.687L152.02 373.265ZM146.58 357.475V332.608H136.084V357.475H146.58ZM141.332 327.36H45.0831V337.857H141.332V327.36ZM45.0831 327.36C36.3322 327.36 29.8237 324.934 25.0216 320.516L17.9147 328.241C25.0394 334.796 34.2742 337.857 45.0831 337.857V327.36ZM25.0628 320.555C20.2741 316.053 17.7715 310.162 17.7715 302.374H7.27473C7.27473 312.714 10.7355 321.493 17.8735 328.203L25.0628 320.555ZM17.7715 302.374C17.7715 293.361 21.0913 282.525 28.3583 269.721L19.2294 264.54C11.4687 278.213 7.27473 290.873 7.27473 302.374H17.7715ZM28.3808 269.681C42.4594 244.363 66.2085 206.887 99.7068 157.176L91.002 151.311C57.472 201.069 33.5141 238.851 19.207 264.58L28.3808 269.681ZM99.7505 157.111C108.564 143.596 116.404 134.792 123.195 130.123L117.248 121.473C108.773 127.3 100.035 137.459 90.9583 151.377L99.7505 157.111ZM123.195 130.123C129.802 125.581 138.019 123.175 148.13 123.175V112.678C136.296 112.678 125.908 115.52 117.248 121.473L123.195 130.123ZM148.13 123.175C160.947 123.175 170.439 126.448 177.222 132.421L184.159 124.543C174.96 116.442 162.746 112.678 148.13 112.678V123.175ZM177.255 132.45C183.927 138.225 187.428 146.167 187.428 156.927H197.925C197.925 143.595 193.436 132.573 184.125 124.514L177.255 132.45ZM187.428 156.927V289.493H197.925V156.927H187.428ZM192.677 294.741H207.347V284.245H192.677V294.741ZM207.347 294.741C213.387 294.741 217.291 296.402 219.859 299.05L227.395 291.743C222.329 286.519 215.38 284.245 207.347 284.245V294.741ZM219.916 299.108C222.693 301.885 224.282 305.705 224.282 311.14H234.779C234.779 303.456 232.432 296.78 227.338 291.686L219.916 299.108ZM224.282 311.14C224.282 316.425 222.712 320.197 219.916 322.993L227.338 330.416C232.414 325.34 234.779 318.736 234.779 311.14H224.282ZM219.916 322.993C217.191 325.718 213.23 327.36 207.347 327.36V337.857C215.299 337.857 222.191 335.563 227.338 330.416L219.916 322.993ZM207.347 327.36H192.677V337.857H207.347V327.36ZM187.428 332.608V357.475H197.925V332.608H187.428ZM187.428 357.475C187.428 364.789 185.372 369.791 181.857 373.218L189.185 380.734C195.211 374.858 197.925 366.86 197.925 357.475H187.428ZM147.654 290.924V161.042H137.157V290.924H147.654ZM142.405 155.793H141.332V166.29H142.405V155.793ZM137.019 158.051C99.7685 211.778 72.4441 254.785 55.1298 287.009L64.3763 291.977C81.4111 260.274 108.473 217.646 145.645 164.032L137.019 158.051ZM54.5047 289.493V290.924H65.0014V289.493H54.5047ZM59.7531 296.173H142.405V285.676H59.7531V296.173Z" fill="black"/>
<path d="M930.244 377.967C925.46 382.512 919.241 384.784 911.588 384.784C903.934 384.784 897.715 382.512 892.931 377.967C888.267 373.303 885.935 366.786 885.935 358.414V333.479H789.425C779.618 333.479 771.725 330.729 765.745 325.228C759.766 319.607 756.776 312.252 756.776 303.163C756.776 292.878 760.543 281.098 768.077 267.823C782.309 242.231 806.227 204.5 839.832 154.63C848.802 140.877 857.113 131.369 864.767 126.107C872.421 120.845 881.749 118.214 892.752 118.214C906.505 118.214 917.388 121.742 925.4 128.798C933.413 135.734 937.419 145.242 937.419 157.321V290.247H952.129C959.185 290.247 964.626 292.22 968.453 296.167C972.4 300.113 974.373 305.375 974.373 311.953C974.373 318.411 972.4 323.613 968.453 327.56C964.507 331.506 959.065 333.479 952.129 333.479H937.419V358.414C937.419 366.786 935.028 373.303 930.244 377.967ZM887.011 291.682V161.447H885.935C848.622 215.263 821.356 258.196 804.134 290.247V291.682H887.011Z" fill="#9178BE"/>
<path d="M930.244 377.967L933.859 381.773L933.883 381.749L933.908 381.725L930.244 377.967ZM892.931 377.967L889.22 381.679L889.268 381.726L889.316 381.773L892.931 377.967ZM885.935 333.479H891.183V328.231H885.935V333.479ZM765.745 325.228L762.151 329.052L762.171 329.071L762.192 329.09L765.745 325.228ZM768.077 267.823L772.642 270.414L772.653 270.394L772.664 270.374L768.077 267.823ZM839.832 154.63L844.185 157.563L844.207 157.53L844.229 157.497L839.832 154.63ZM925.4 128.798L921.932 132.737L921.949 132.752L921.965 132.766L925.4 128.798ZM937.419 290.247H932.171V295.495H937.419V290.247ZM968.453 296.167L964.686 299.82L964.714 299.849L964.742 299.878L968.453 296.167ZM937.419 333.479V328.231H932.171V333.479H937.419ZM887.011 291.682V296.93H892.26V291.682H887.011ZM887.011 161.447H892.26V156.198H887.011V161.447ZM885.935 161.447V156.198H883.188L881.622 158.456L885.935 161.447ZM804.134 290.247L799.511 287.763L798.886 288.926V290.247H804.134ZM804.134 291.682H798.886V296.93H804.134V291.682ZM926.629 374.162C922.976 377.633 918.127 379.536 911.588 379.536V390.033C920.356 390.033 927.944 387.391 933.859 381.773L926.629 374.162ZM911.588 379.536C905.048 379.536 900.199 377.633 896.546 374.162L889.316 381.773C895.231 387.391 902.819 390.033 911.588 390.033V379.536ZM896.642 374.256C893.21 370.824 891.183 365.787 891.183 358.414H880.687C880.687 367.784 883.324 375.783 889.22 381.679L896.642 374.256ZM891.183 358.414V333.479H880.687V358.414H891.183ZM885.935 328.231H789.425V338.728H885.935V328.231ZM789.425 328.231C780.647 328.231 774.117 325.798 769.299 321.365L762.192 329.09C769.333 335.66 778.589 338.728 789.425 338.728V328.231ZM769.34 321.403C764.535 316.887 762.024 310.976 762.024 303.163H751.528C751.528 313.528 754.996 322.327 762.151 329.052L769.34 321.403ZM762.024 303.163C762.024 294.122 765.354 283.254 772.642 270.414L763.513 265.233C755.732 278.942 751.528 291.634 751.528 303.163H762.024ZM772.664 270.374C786.781 244.987 810.595 207.409 844.185 157.563L835.48 151.697C801.859 201.59 777.836 239.475 763.491 265.273L772.664 270.374ZM844.229 157.497C853.067 143.945 860.929 135.115 867.741 130.432L861.794 121.782C853.298 127.624 844.537 137.808 835.436 151.763L844.229 157.497ZM867.741 130.432C874.368 125.876 882.611 123.463 892.752 123.463V112.966C880.888 112.966 870.474 115.815 861.794 121.782L867.741 130.432ZM892.752 123.463C905.605 123.463 915.127 126.745 921.932 132.737L928.869 124.859C919.648 116.739 907.404 112.966 892.752 112.966V123.463ZM921.965 132.766C928.659 138.56 932.171 146.528 932.171 157.321H942.668C942.668 143.956 938.168 132.908 928.835 124.83L921.965 132.766ZM932.171 157.321V290.247H942.668V157.321H932.171ZM937.419 295.495H952.129V284.999H937.419V295.495ZM952.129 295.495C958.189 295.495 962.108 297.162 964.686 299.82L972.221 292.513C967.145 287.279 960.181 284.999 952.129 284.999V295.495ZM964.742 299.878C967.53 302.666 969.125 306.5 969.125 311.953H979.622C979.622 304.251 977.27 297.561 972.165 292.456L964.742 299.878ZM969.125 311.953C969.125 317.256 967.549 321.042 964.742 323.848L972.165 331.271C977.251 326.184 979.622 319.566 979.622 311.953H969.125ZM964.742 323.848C962.007 326.584 958.031 328.231 952.129 328.231V338.728C960.1 338.728 967.007 336.428 972.165 331.271L964.742 323.848ZM952.129 328.231H937.419V338.728H952.129V328.231ZM932.171 333.479V358.414H942.668V333.479H932.171ZM932.171 358.414C932.171 365.75 930.108 370.77 926.58 374.21L933.908 381.725C939.947 375.837 942.668 367.821 942.668 358.414H932.171ZM892.26 291.682V161.447H881.763V291.682H892.26ZM887.011 156.198H885.935V166.695H887.011V156.198ZM881.622 158.456C844.27 212.329 816.872 255.452 799.511 287.763L808.758 292.731C825.839 260.941 852.975 218.197 890.248 164.437L881.622 158.456ZM798.886 290.247V291.682H809.383V290.247H798.886ZM804.134 296.93H887.011V286.434H804.134V296.93Z" fill="black"/>
</svg>
