<svg width="76" height="76" viewBox="0 0 76 76" fill="none" xmlns="http://www.w3.org/2000/svg">
<rect x="1.94872" y="1.94872" width="72.1026" height="72.1026" rx="11.6923" fill="white" stroke="black" stroke-width="3.89744"/>
<path d="M17.5381 15.5898H29.2304V19.4872H21.4355V23.3847H29.2304V27.2821H21.4355V31.1795H29.2304V35.077H17.5381V15.5898ZM37.0253 15.5898H44.8201V19.4872H37.0253V23.3847H40.9227C41.9564 23.3847 42.9477 23.7953 43.6786 24.5262C44.4095 25.2571 44.8201 26.2484 44.8201 27.2821V31.1795C44.8201 33.3426 43.0858 35.077 40.9227 35.077H33.1278V31.1795H40.9227V27.2821H37.0253C35.9916 27.2821 35.0003 26.8715 34.2694 26.1406C33.5385 25.4096 33.1278 24.4183 33.1278 23.3847V19.4872C33.1278 17.3436 34.8817 15.5898 37.0253 15.5898ZM52.615 15.5898H56.5124C57.5461 15.5898 58.5374 16.0004 59.2683 16.7313C59.9993 17.4622 60.4099 18.4536 60.4099 19.4872V21.4359H56.5124V19.4872H52.615V31.1795H56.5124V29.2308H60.4099V31.1795C60.4099 33.3426 58.6755 35.077 56.5124 35.077H52.615C51.5813 35.077 50.59 34.6663 49.8591 33.9354C49.1282 33.2045 48.7176 32.2132 48.7176 31.1795V19.4872C48.7176 17.3436 50.4714 15.5898 52.615 15.5898Z" fill="black"/>
<path d="M36.1159 60.118C35.8561 59.8582 35.7314 59.5442 35.7418 59.1761C35.7522 58.808 35.8877 58.4941 36.1484 58.2342L38.5193 55.8633H28.5809C28.2128 55.8633 27.904 55.7386 27.6546 55.4891C27.4052 55.2397 27.2809 54.9314 27.2817 54.5641C27.2817 54.196 27.4065 53.8873 27.6559 53.6378C27.9053 53.3884 28.2137 53.2641 28.5809 53.265H38.5193L36.1159 50.8616C35.8561 50.6017 35.7262 50.293 35.7262 49.9353C35.7262 49.5776 35.8561 49.2693 36.1159 49.0103C36.3758 48.7505 36.6845 48.6205 37.0422 48.6205C37.3999 48.6205 37.7083 48.7505 37.9672 49.0103L42.6117 53.6547C42.7416 53.7846 42.8338 53.9254 42.8884 54.077C42.9429 54.2285 42.9698 54.3909 42.9689 54.5641C42.9689 54.7374 42.9421 54.8997 42.8884 55.0513C42.8347 55.2029 42.7424 55.3436 42.6117 55.4735L37.9347 60.1505C37.6966 60.3886 37.3991 60.5077 37.0422 60.5077C36.6854 60.5077 36.3766 60.3778 36.1159 60.118ZM29.88 66.2564C29.1655 66.2564 28.5536 66.0018 28.0443 65.4925C27.5351 64.9833 27.2809 64.3718 27.2817 63.6582V59.7607C27.2817 59.3926 27.4065 59.0839 27.6559 58.8344C27.9053 58.585 28.2137 58.4607 28.5809 58.4616C28.949 58.4616 29.2577 58.5863 29.5072 58.8357C29.7566 59.0852 29.8809 59.3935 29.88 59.7607V63.6582H48.0681V45.4701H29.88V49.3676C29.88 49.7356 29.7553 50.0444 29.5059 50.2938C29.2564 50.5433 28.9481 50.6676 28.5809 50.6667C28.2128 50.6667 27.904 50.542 27.6546 50.2925C27.4052 50.0431 27.2809 49.7348 27.2817 49.3676V45.4701C27.2817 44.7556 27.5364 44.1437 28.0456 43.6344C28.5549 43.1252 29.1664 42.871 29.88 42.8718H48.0681C48.7826 42.8718 49.3945 43.1265 49.9038 43.6357C50.413 44.145 50.6672 44.7565 50.6664 45.4701V63.6582C50.6664 64.3727 50.4117 64.9846 49.9025 65.4938C49.3932 66.0031 48.7817 66.2573 48.0681 66.2564H29.88Z" fill="black"/>
</svg>
