<svg width="112" height="47" viewBox="0 0 112 47" fill="none" xmlns="http://www.w3.org/2000/svg">
<rect x="35.4267" y="8.42672" width="32.1466" height="32.1466" rx="5.26293" fill="#A8DEE2" stroke="black" stroke-width="0.853448"/>
<circle cx="55.4828" cy="20.5168" r="3.55603" fill="#F5BD78" stroke="black" stroke-width="0.853448"/>
<circle cx="47.5169" cy="20.5168" r="3.55603" fill="#F5BD78" stroke="black" stroke-width="0.853448"/>
<circle cx="47.5169" cy="28.4828" r="3.55603" fill="#F5BD78" stroke="black" stroke-width="0.853448"/>
<circle cx="55.4828" cy="28.4828" r="3.55603" fill="#F5BD78" stroke="black" stroke-width="0.853448"/>
<path d="M26.1573 9.58079V38H21.5781L8.18718 18.6422H7.95127V38H2.80307V9.58079H7.41009L20.7871 28.9525H21.0369V9.58079H26.1573Z" fill="#F5BD78"/>
<path d="M26.1573 9.58079H26.6835V9.0546H26.1573V9.58079ZM26.1573 38V38.5262H26.6835V38H26.1573ZM21.5781 38L21.1453 38.2994L21.3022 38.5262H21.5781V38ZM8.18718 18.6422L8.61992 18.3428L8.463 18.116H8.18718V18.6422ZM7.95127 18.6422V18.116H7.42508V18.6422H7.95127ZM7.95127 38V38.5262H8.47746V38H7.95127ZM2.80307 38H2.27688V38.5262H2.80307V38ZM2.80307 9.58079V9.0546H2.27688V9.58079H2.80307ZM7.41009 9.58079L7.84307 9.28179L7.68619 9.0546H7.41009V9.58079ZM20.7871 28.9525L20.3541 29.2515L20.511 29.4787H20.7871V28.9525ZM21.0369 28.9525V29.4787H21.5631V28.9525H21.0369ZM21.0369 9.58079V9.0546H20.5107V9.58079H21.0369ZM25.6311 9.58079V38H26.6835V9.58079H25.6311ZM26.1573 37.4738H21.5781V38.5262H26.1573V37.4738ZM22.0108 37.7006L8.61992 18.3428L7.75444 18.9415L21.1453 38.2994L22.0108 37.7006ZM8.18718 18.116H7.95127V19.1684H8.18718V18.116ZM7.42508 18.6422V38H8.47746V18.6422H7.42508ZM7.95127 37.4738H2.80307V38.5262H7.95127V37.4738ZM3.32926 38V9.58079H2.27688V38H3.32926ZM2.80307 10.107H7.41009V9.0546H2.80307V10.107ZM6.9771 9.87978L20.3541 29.2515L21.2201 28.6535L7.84307 9.28179L6.9771 9.87978ZM20.7871 29.4787H21.0369V28.4263H20.7871V29.4787ZM21.5631 28.9525V9.58079H20.5107V28.9525H21.5631ZM21.0369 10.107H26.1573V9.0546H21.0369V10.107Z" fill="black"/>
<path d="M80.7839 38L72.7632 9.58079H78.3L83.4204 30.465H83.6841L89.1514 9.58079H94.1886L99.6699 30.4789H99.9197L105.04 9.58079H110.577L102.556 38H97.4774L91.788 18.0594H91.566L85.8627 38H80.7839Z" fill="#F5BD78"/>
<path d="M80.7839 38L80.2775 38.1429L80.3856 38.5262H80.7839V38ZM72.7632 9.58079V9.0546H72.068L72.2568 9.72371L72.7632 9.58079ZM78.3 9.58079L78.811 9.45549L78.7127 9.0546H78.3V9.58079ZM83.4204 30.465L82.9094 30.5903L83.0077 30.9912H83.4204V30.465ZM83.6841 30.465V30.9912H84.0902L84.1931 30.5983L83.6841 30.465ZM89.1514 9.58079V9.0546H88.7453L88.6424 9.44753L89.1514 9.58079ZM94.1886 9.58079L94.6976 9.44729L94.5946 9.0546H94.1886V9.58079ZM99.6699 30.4789L99.1609 30.6124L99.2639 31.0051H99.6699V30.4789ZM99.9197 30.4789V31.0051H100.332L100.431 30.6041L99.9197 30.4789ZM105.04 9.58079V9.0546H104.627L104.529 9.45556L105.04 9.58079ZM110.577 9.58079L111.083 9.72371L111.272 9.0546H110.577V9.58079ZM102.556 38V38.5262H102.954L103.063 38.1429L102.556 38ZM97.4774 38L96.9714 38.1444L97.0803 38.5262H97.4774V38ZM91.788 18.0594L92.294 17.915L92.185 17.5332H91.788V18.0594ZM91.566 18.0594V17.5332H91.1692L91.0601 17.9147L91.566 18.0594ZM85.8627 38V38.5262H86.2595L86.3686 38.1447L85.8627 38ZM81.2903 37.8571L73.2696 9.43787L72.2568 9.72371L80.2775 38.1429L81.2903 37.8571ZM72.7632 10.107H78.3V9.0546H72.7632V10.107ZM77.7889 9.70609L82.9094 30.5903L83.9315 30.3397L78.811 9.45549L77.7889 9.70609ZM83.4204 30.9912H83.6841V29.9388H83.4204V30.9912ZM84.1931 30.5983L89.6605 9.71405L88.6424 9.44753L83.175 30.3318L84.1931 30.5983ZM89.1514 10.107H94.1886V9.0546H89.1514V10.107ZM93.6797 9.71428L99.1609 30.6124L100.179 30.3454L94.6976 9.44729L93.6797 9.71428ZM99.6699 31.0051H99.9197V29.9527H99.6699V31.0051ZM100.431 30.6041L105.551 9.70601L104.529 9.45556L99.4086 30.3537L100.431 30.6041ZM105.04 10.107H110.577V9.0546H105.04V10.107ZM110.07 9.43787L102.05 37.8571L103.063 38.1429L111.083 9.72371L110.07 9.43787ZM102.556 37.4738H97.4774V38.5262H102.556V37.4738ZM97.9834 37.8556L92.294 17.915L91.282 18.2037L96.9714 38.1444L97.9834 37.8556ZM91.788 17.5332H91.566V18.5856H91.788V17.5332ZM91.0601 17.9147L85.3568 37.8553L86.3686 38.1447L92.0719 18.2041L91.0601 17.9147ZM85.8627 37.4738H80.7839V38.5262H85.8627V37.4738Z" fill="black"/>
</svg>
