<svg width="40" height="63" viewBox="0 0 40 63" fill="none" xmlns="http://www.w3.org/2000/svg">
<circle cx="24.5736" cy="54.5533" r="7" transform="rotate(1.35733 24.5736 54.5533)" fill="black" stroke="white" stroke-width="2"/>
<circle cx="9.66775" cy="8.18726" r="8" transform="rotate(1.35733 9.66775 8.18726)" fill="black"/>
<path d="M12.0836 11.3174C11.6013 10.9258 11.3984 10.2731 11.4943 9.6425C11.5898 9.0143 11.9648 8.501 12.5343 8.32604C12.6779 8.28193 12.8094 8.26624 12.9301 8.27857C13.792 8.36667 16.6467 8.83004 19.9593 11.223C23.2678 13.6129 27.0663 17.9513 29.7866 25.8429C34.9641 40.8633 29.6256 51.2391 28.0779 53.7846C27.8884 54.0963 27.5834 54.3245 27.2045 54.4508C26.3948 54.7208 25.5498 54.4098 24.9564 53.7562C24.3612 53.1008 24.0935 52.1778 24.3802 51.3452C26.3013 45.7673 28.1413 36.8657 24.6526 28.3475C21.1281 19.7419 15.6839 14.2407 12.0836 11.3174Z" fill="white" stroke="black"/>
</svg>
